<mxfile host="app.diagrams.net" modified="2021-06-12T20:30:36.458Z" agent="5.0 (Windows NT 10.0; Win64; x64) AppleWebKit/537.36 (KHTML, like Gecko) Chrome/91.0.4472.77 Safari/537.36 Edg/91.0.864.41" etag="86HgVvCNtyvCVKU_zWua" version="14.7.7" type="github">
  <diagram id="JxIQJfUGfMaZ3-vrhAbu" name="Page-1">
    <mxGraphModel dx="865" dy="1652" grid="1" gridSize="10" guides="1" tooltips="1" connect="1" arrows="1" fold="1" page="1" pageScale="1" pageWidth="827" pageHeight="1169" math="0" shadow="0">
      <root>
        <mxCell id="0" />
        <mxCell id="1" parent="0" />
        <mxCell id="jEa4D9O93qdSq7KKz5Td-61" value="" style="rounded=0;whiteSpace=wrap;html=1;" vertex="1" parent="1">
          <mxGeometry x="210" y="-60" width="400" height="1050" as="geometry" />
        </mxCell>
        <mxCell id="jEa4D9O93qdSq7KKz5Td-1" value="Usuario&lt;br&gt;" style="shape=umlActor;verticalLabelPosition=bottom;verticalAlign=top;html=1;outlineConnect=0;" vertex="1" parent="1">
          <mxGeometry x="70" y="400" width="30" height="60" as="geometry" />
        </mxCell>
        <mxCell id="jEa4D9O93qdSq7KKz5Td-5" value="" style="ellipse;whiteSpace=wrap;html=1;fontStyle=1" vertex="1" parent="1">
          <mxGeometry x="354" y="180" width="120" height="80" as="geometry" />
        </mxCell>
        <mxCell id="jEa4D9O93qdSq7KKz5Td-6" value="&lt;span style=&quot;font-weight: normal&quot;&gt;Incluir/excluir atividades&lt;/span&gt;" style="text;html=1;strokeColor=none;fillColor=none;align=center;verticalAlign=middle;whiteSpace=wrap;rounded=0;fontStyle=1" vertex="1" parent="1">
          <mxGeometry x="394" y="210" width="40" height="20" as="geometry" />
        </mxCell>
        <mxCell id="jEa4D9O93qdSq7KKz5Td-9" value="" style="ellipse;whiteSpace=wrap;html=1;" vertex="1" parent="1">
          <mxGeometry x="250" y="10" width="120" height="80" as="geometry" />
        </mxCell>
        <mxCell id="jEa4D9O93qdSq7KKz5Td-10" value="Incluir/excluir Disciplinas" style="text;html=1;strokeColor=none;fillColor=none;align=center;verticalAlign=middle;whiteSpace=wrap;rounded=0;" vertex="1" parent="1">
          <mxGeometry x="290" y="40" width="40" height="20" as="geometry" />
        </mxCell>
        <mxCell id="jEa4D9O93qdSq7KKz5Td-11" value="" style="ellipse;whiteSpace=wrap;html=1;" vertex="1" parent="1">
          <mxGeometry x="380" y="280" width="120" height="80" as="geometry" />
        </mxCell>
        <mxCell id="jEa4D9O93qdSq7KKz5Td-12" value="Acessar o calendario" style="text;html=1;strokeColor=none;fillColor=none;align=center;verticalAlign=middle;whiteSpace=wrap;rounded=0;" vertex="1" parent="1">
          <mxGeometry x="420" y="310" width="50" height="20" as="geometry" />
        </mxCell>
        <mxCell id="jEa4D9O93qdSq7KKz5Td-13" value="" style="ellipse;whiteSpace=wrap;html=1;" vertex="1" parent="1">
          <mxGeometry x="385" y="440" width="120" height="80" as="geometry" />
        </mxCell>
        <mxCell id="jEa4D9O93qdSq7KKz5Td-14" value="Acessar o calendario" style="text;html=1;strokeColor=none;fillColor=none;align=center;verticalAlign=middle;whiteSpace=wrap;rounded=0;" vertex="1" parent="1">
          <mxGeometry x="425" y="470" width="50" height="20" as="geometry" />
        </mxCell>
        <mxCell id="jEa4D9O93qdSq7KKz5Td-17" value="" style="ellipse;whiteSpace=wrap;html=1;" vertex="1" parent="1">
          <mxGeometry x="314" y="520" width="120" height="80" as="geometry" />
        </mxCell>
        <mxCell id="jEa4D9O93qdSq7KKz5Td-18" value="Visualizar atividades" style="text;html=1;strokeColor=none;fillColor=none;align=center;verticalAlign=middle;whiteSpace=wrap;rounded=0;" vertex="1" parent="1">
          <mxGeometry x="349" y="550" width="50" height="20" as="geometry" />
        </mxCell>
        <mxCell id="jEa4D9O93qdSq7KKz5Td-19" value="" style="ellipse;whiteSpace=wrap;html=1;" vertex="1" parent="1">
          <mxGeometry x="390" y="610" width="120" height="80" as="geometry" />
        </mxCell>
        <mxCell id="jEa4D9O93qdSq7KKz5Td-20" value="Visualizar disciplinas" style="text;html=1;strokeColor=none;fillColor=none;align=center;verticalAlign=middle;whiteSpace=wrap;rounded=0;" vertex="1" parent="1">
          <mxGeometry x="430" y="640" width="50" height="20" as="geometry" />
        </mxCell>
        <mxCell id="jEa4D9O93qdSq7KKz5Td-21" value="" style="ellipse;whiteSpace=wrap;html=1;" vertex="1" parent="1">
          <mxGeometry x="360" y="780" width="120" height="80" as="geometry" />
        </mxCell>
        <mxCell id="jEa4D9O93qdSq7KKz5Td-22" value="Visualizar niveis e experiencia" style="text;html=1;strokeColor=none;fillColor=none;align=center;verticalAlign=middle;whiteSpace=wrap;rounded=0;" vertex="1" parent="1">
          <mxGeometry x="400" y="810" width="50" height="20" as="geometry" />
        </mxCell>
        <mxCell id="jEa4D9O93qdSq7KKz5Td-23" value="" style="ellipse;whiteSpace=wrap;html=1;" vertex="1" parent="1">
          <mxGeometry x="360" y="690" width="120" height="80" as="geometry" />
        </mxCell>
        <mxCell id="jEa4D9O93qdSq7KKz5Td-24" value="Visualizar trofeus" style="text;html=1;strokeColor=none;fillColor=none;align=center;verticalAlign=middle;whiteSpace=wrap;rounded=0;" vertex="1" parent="1">
          <mxGeometry x="390" y="720" width="50" height="20" as="geometry" />
        </mxCell>
        <mxCell id="jEa4D9O93qdSq7KKz5Td-25" value="" style="ellipse;whiteSpace=wrap;html=1;" vertex="1" parent="1">
          <mxGeometry x="294" y="860" width="120" height="80" as="geometry" />
        </mxCell>
        <mxCell id="jEa4D9O93qdSq7KKz5Td-26" value="Visualizar&amp;nbsp; o perfil" style="text;html=1;strokeColor=none;fillColor=none;align=center;verticalAlign=middle;whiteSpace=wrap;rounded=0;" vertex="1" parent="1">
          <mxGeometry x="329" y="890" width="50" height="20" as="geometry" />
        </mxCell>
        <mxCell id="jEa4D9O93qdSq7KKz5Td-27" value="" style="ellipse;whiteSpace=wrap;html=1;" vertex="1" parent="1">
          <mxGeometry x="385" y="90" width="120" height="80" as="geometry" />
        </mxCell>
        <mxCell id="jEa4D9O93qdSq7KKz5Td-28" value="Visualizar categorias" style="text;html=1;strokeColor=none;fillColor=none;align=center;verticalAlign=middle;whiteSpace=wrap;rounded=0;" vertex="1" parent="1">
          <mxGeometry x="425" y="120" width="50" height="20" as="geometry" />
        </mxCell>
        <mxCell id="jEa4D9O93qdSq7KKz5Td-29" value="" style="ellipse;whiteSpace=wrap;html=1;" vertex="1" parent="1">
          <mxGeometry x="305" y="355" width="120" height="80" as="geometry" />
        </mxCell>
        <mxCell id="jEa4D9O93qdSq7KKz5Td-30" value="Incluir/excluir categorias" style="text;html=1;strokeColor=none;fillColor=none;align=center;verticalAlign=middle;whiteSpace=wrap;rounded=0;" vertex="1" parent="1">
          <mxGeometry x="325" y="380" width="50" height="10" as="geometry" />
        </mxCell>
        <mxCell id="jEa4D9O93qdSq7KKz5Td-44" value="" style="endArrow=none;html=1;entryX=0;entryY=0.5;entryDx=0;entryDy=0;" edge="1" parent="1" target="jEa4D9O93qdSq7KKz5Td-9">
          <mxGeometry width="50" height="50" relative="1" as="geometry">
            <mxPoint x="120" y="420" as="sourcePoint" />
            <mxPoint x="200" y="100" as="targetPoint" />
          </mxGeometry>
        </mxCell>
        <mxCell id="jEa4D9O93qdSq7KKz5Td-48" value="" style="endArrow=none;html=1;entryX=0.019;entryY=0.617;entryDx=0;entryDy=0;entryPerimeter=0;" edge="1" parent="1" target="jEa4D9O93qdSq7KKz5Td-5">
          <mxGeometry width="50" height="50" relative="1" as="geometry">
            <mxPoint x="120" y="420" as="sourcePoint" />
            <mxPoint x="350" y="150" as="targetPoint" />
          </mxGeometry>
        </mxCell>
        <mxCell id="jEa4D9O93qdSq7KKz5Td-51" value="" style="endArrow=none;html=1;entryX=0;entryY=0.375;entryDx=0;entryDy=0;entryPerimeter=0;" edge="1" parent="1" target="jEa4D9O93qdSq7KKz5Td-11">
          <mxGeometry width="50" height="50" relative="1" as="geometry">
            <mxPoint x="120" y="420" as="sourcePoint" />
            <mxPoint x="270" y="320" as="targetPoint" />
          </mxGeometry>
        </mxCell>
        <mxCell id="jEa4D9O93qdSq7KKz5Td-53" value="" style="endArrow=none;html=1;" edge="1" parent="1" source="jEa4D9O93qdSq7KKz5Td-29">
          <mxGeometry width="50" height="50" relative="1" as="geometry">
            <mxPoint x="240" y="390" as="sourcePoint" />
            <mxPoint x="120" y="420" as="targetPoint" />
          </mxGeometry>
        </mxCell>
        <mxCell id="jEa4D9O93qdSq7KKz5Td-54" value="" style="endArrow=none;html=1;entryX=0;entryY=0.5;entryDx=0;entryDy=0;" edge="1" parent="1" target="jEa4D9O93qdSq7KKz5Td-13">
          <mxGeometry width="50" height="50" relative="1" as="geometry">
            <mxPoint x="120" y="420" as="sourcePoint" />
            <mxPoint x="300" y="350" as="targetPoint" />
          </mxGeometry>
        </mxCell>
        <mxCell id="jEa4D9O93qdSq7KKz5Td-55" value="" style="endArrow=none;html=1;entryX=0;entryY=0.438;entryDx=0;entryDy=0;entryPerimeter=0;" edge="1" parent="1" target="jEa4D9O93qdSq7KKz5Td-17">
          <mxGeometry width="50" height="50" relative="1" as="geometry">
            <mxPoint x="120" y="420" as="sourcePoint" />
            <mxPoint x="310" y="360" as="targetPoint" />
          </mxGeometry>
        </mxCell>
        <mxCell id="jEa4D9O93qdSq7KKz5Td-56" value="" style="endArrow=none;html=1;entryX=0;entryY=0.5;entryDx=0;entryDy=0;" edge="1" parent="1" target="jEa4D9O93qdSq7KKz5Td-19">
          <mxGeometry width="50" height="50" relative="1" as="geometry">
            <mxPoint x="120" y="420" as="sourcePoint" />
            <mxPoint x="320" y="370" as="targetPoint" />
          </mxGeometry>
        </mxCell>
        <mxCell id="jEa4D9O93qdSq7KKz5Td-57" value="" style="endArrow=none;html=1;entryX=0;entryY=0.375;entryDx=0;entryDy=0;entryPerimeter=0;" edge="1" parent="1" target="jEa4D9O93qdSq7KKz5Td-23">
          <mxGeometry width="50" height="50" relative="1" as="geometry">
            <mxPoint x="120" y="420" as="sourcePoint" />
            <mxPoint x="330" y="380" as="targetPoint" />
          </mxGeometry>
        </mxCell>
        <mxCell id="jEa4D9O93qdSq7KKz5Td-58" value="" style="endArrow=none;html=1;exitX=0;exitY=0.5;exitDx=0;exitDy=0;" edge="1" parent="1" source="jEa4D9O93qdSq7KKz5Td-25">
          <mxGeometry width="50" height="50" relative="1" as="geometry">
            <mxPoint x="290" y="440" as="sourcePoint" />
            <mxPoint x="120" y="420" as="targetPoint" />
          </mxGeometry>
        </mxCell>
        <mxCell id="jEa4D9O93qdSq7KKz5Td-59" value="" style="endArrow=none;html=1;entryX=0;entryY=0.5;entryDx=0;entryDy=0;" edge="1" parent="1" target="jEa4D9O93qdSq7KKz5Td-21">
          <mxGeometry width="50" height="50" relative="1" as="geometry">
            <mxPoint x="120" y="420" as="sourcePoint" />
            <mxPoint x="350" y="400" as="targetPoint" />
          </mxGeometry>
        </mxCell>
        <mxCell id="jEa4D9O93qdSq7KKz5Td-60" value="" style="endArrow=none;html=1;entryX=0;entryY=0.5;entryDx=0;entryDy=0;" edge="1" parent="1" target="jEa4D9O93qdSq7KKz5Td-27">
          <mxGeometry width="50" height="50" relative="1" as="geometry">
            <mxPoint x="120" y="420" as="sourcePoint" />
            <mxPoint x="360" y="410" as="targetPoint" />
          </mxGeometry>
        </mxCell>
        <mxCell id="jEa4D9O93qdSq7KKz5Td-62" value="Sistema" style="text;html=1;strokeColor=none;fillColor=none;align=center;verticalAlign=middle;whiteSpace=wrap;rounded=0;" vertex="1" parent="1">
          <mxGeometry x="394" y="-50" width="40" height="20" as="geometry" />
        </mxCell>
      </root>
    </mxGraphModel>
  </diagram>
</mxfile>
